<svg xmlns="http://www.w3.org/2000/svg" viewBox="0 0 64 64" role="img" aria-label="WhatsApp">
  <rect x="2" y="2" width="60" height="60" rx="14" fill="#25D366" />
  <circle cx="32" cy="32" r="18.5" fill="none" stroke="#ffffff" stroke-width="3" />
  <g transform="translate(17 17) scale(1.25)">
    <path
      fill="#ffffff"
      d="M19.05 4.91A9.82 9.82 0 0 0 12.04 2C6.56 2 2.11 6.45 2.1 11.93a9.88 9.88 0 0 0 1.3 4.91L2 22l5.3-1.39a9.89 9.89 0 0 0 4.73 1.21h.01c5.48 0 9.93-4.45 9.94-9.93A9.84 9.84 0 0 0 19.05 4.91Zm-7.01 15.24h-.01a8.25 8.25 0 0 1-4.2-1.15l-.3-.18-3.14.82.84-3.06-.2-.31a8.23 8.23 0 0 1-1.27-4.35c0-4.56 3.72-8.28 8.29-8.28 2.21 0 4.29.86 5.85 2.42a8.21 8.21 0 0 1 2.43 5.86c0 4.57-3.72 8.29-8.29 8.29Zm4.54-6.18c-.25-.12-1.46-.72-1.69-.8-.23-.09-.39-.12-.56.12-.16.24-.64.8-.78.96-.14.17-.28.19-.52.06-.25-.12-1.04-.38-1.98-1.2-.73-.65-1.23-1.45-1.37-1.7-.14-.24-.02-.38.1-.51.11-.11.24-.28.37-.42.12-.14.16-.24.24-.4.08-.17.04-.31-.02-.43-.06-.12-.56-1.35-.77-1.85-.2-.48-.41-.42-.56-.43h-.48c-.17 0-.43.06-.66.31-.23.24-.87.85-.87 2.08 0 1.22.89 2.4 1.01 2.56.12.17 1.75 2.67 4.24 3.75.59.26 1.06.41 1.42.52.6.19 1.15.16 1.59.1.48-.07 1.46-.6 1.67-1.18.2-.58.2-1.08.14-1.18-.06-.1-.23-.16-.48-.28Z"
    />
  </g>
</svg>
